<svg width="18" height="17" viewBox="0 0 18 17" fill="none" xmlns="http://www.w3.org/2000/svg">
<path d="M17.9893 4.03663L16.9727 9.50324C16.8889 9.95483 16.6462 10.3633 16.2868 10.6574C15.9275 10.9515 15.4744 11.1128 15.0063 11.113H5.34095L5.70757 13.0741H14.6647C15.0602 13.0741 15.4468 13.1891 15.7757 13.4046C16.1046 13.6201 16.3609 13.9264 16.5122 14.2847C16.6636 14.6431 16.7032 15.0374 16.626 15.4178C16.5489 15.7982 16.3584 16.1477 16.0787 16.4219C15.7991 16.6962 15.4427 16.883 15.0548 16.9587C14.6669 17.0343 14.2648 16.9955 13.8994 16.8471C13.534 16.6986 13.2217 16.4473 13.002 16.1248C12.7823 15.8023 12.665 15.4231 12.665 15.0352C12.665 14.8124 12.7045 14.5912 12.7816 14.3815H7.88228C7.95939 14.5912 7.99886 14.8124 7.99893 15.0352C7.99953 15.3516 7.92206 15.6635 7.77312 15.9442C7.62418 16.2249 7.4082 16.466 7.14362 16.6471C6.87903 16.8282 6.5737 16.9438 6.25368 16.9841C5.93366 17.0243 5.60845 16.988 5.30582 16.8783C5.0032 16.7686 4.73213 16.5887 4.51577 16.354C4.2994 16.1193 4.14416 15.8367 4.0633 15.5304C3.98243 15.2241 3.97834 14.9031 4.05138 14.5949C4.12442 14.2867 4.27242 14.0004 4.48273 13.7605L2.17471 1.30741H0.666578C0.48979 1.30741 0.320244 1.23854 0.195236 1.11595C0.0702285 0.993352 0 0.827079 0 0.653705C0 0.480332 0.0702285 0.314059 0.195236 0.191466C0.320244 0.0688723 0.48979 0 0.666578 0H2.17471C2.48587 0.000667513 2.78699 0.108052 3.0259 0.303551C3.26481 0.49905 3.42647 0.770347 3.48287 1.07044L3.89115 3.26853H17.331C17.4283 3.26873 17.5244 3.29008 17.6123 3.33106C17.7002 3.37203 17.7777 3.43161 17.8393 3.5055C17.9037 3.57706 17.9507 3.66208 17.9767 3.7541C18.0027 3.84613 18.007 3.94274 17.9893 4.03663Z" fill="white"/>
</svg>
